<?xml version="1.0" encoding="iso-8859-1"?>
<!-- Generator: Adobe Illustrator 19.0.0, SVG Export Plug-In . SVG Version: 6.00 Build 0)  -->
<svg version="1.1" id="Layer_1" xmlns="http://www.w3.org/2000/svg" xmlns:xlink="http://www.w3.org/1999/xlink" x="0px" y="0px"
	 viewBox="0 0 512.001 512.001" style="enable-background:new 0 0 512.001 512.001;" xml:space="preserve">
<path style="fill:#009245;" d="M296.223,0c-20.339,0-37.743,12.767-44.647,30.704c-5.359-4.149-12.076-6.684-19.405-6.684v15.592
	c9.355,0,16.222,7.434,16.222,15.75v56.52h15.592V87.585c0-8.316,7.686-15.948,16.002-15.948V56.045
	c-5.874,0-11.329,1.539-16.002,4.235V47.828c0-17.775,14.461-32.236,32.237-32.236s32.237,14.461,32.237,32.236h15.592
	C344.051,21.456,322.596,0,296.223,0z"/>
<path style="fill:#FF1D25;" d="M216.157,464.171c0,22.11,17.924,40.033,40.033,40.033s40.033-17.924,40.033-40.033l24.02-288.236
	c0-35.375-28.677-64.052-64.052-64.052s-64.052,28.677-64.052,64.052L216.157,464.171z"/>
<path style="fill:#BF161C;" d="M216.157,464.171l-24.02-288.236c0-23.695,12.899-44.334,32.026-55.413
	c-9.429-5.462-20.346-8.639-32.026-8.639c-35.375,0-64.052,28.677-64.052,64.052l24.02,288.236c0,22.11,17.924,40.033,40.033,40.033
	c13.158,0,24.729-6.433,32.026-16.233C219.199,481.303,216.157,473.123,216.157,464.171z"/>
<path style="fill:#FF4A51;" d="M320.242,111.882c-11.681,0-22.597,3.177-32.026,8.639c19.127,11.08,32.026,31.719,32.026,55.413
	l-24.02,288.236c0,8.952-3.041,17.133-8.007,23.8c7.297,9.799,18.869,16.233,32.026,16.233c22.11,0,40.033-17.924,40.033-40.033
	l24.02-288.236C384.295,140.559,355.618,111.882,320.242,111.882z"/>
<rect x="240.482" y="368.245" width="15.592" height="15.592"/>
<path d="M320.242,104.086c-11.082,0-22.054,2.609-31.995,7.573c-9.656-4.835-20.537-7.573-32.05-7.573
	c-11.536,0-22.437,2.748-32.106,7.602c-9.975-4.981-21.041-7.602-32.144-7.602c-39.618,0-72.039,32.231-72.039,71.849v0.324
	l24.211,288.251c0.183,26.219,21.758,47.492,48.019,47.492c12.008,0,23.241-4.445,31.953-12.406
	c8.493,7.705,19.756,12.406,32.1,12.406c12.341,0,23.603-4.699,32.097-12.4c8.714,7.957,19.951,12.4,31.956,12.4
	c26.26,0,47.645-21.272,47.828-47.491l23.993-287.929l0.027-0.648C392.091,136.317,359.86,104.086,320.242,104.086z
	 M191.891,496.408c-12.243,0-23.03-6.862-28.559-16.94h12.708v-15.592h-16.632v-0.029L135.635,175.62
	c0.168-30.877,25.466-55.942,56.382-55.942c5.586,0,11.265,0.848,16.593,2.493c-13.896,12.316-23.002,29.914-24.127,49.624
	c-0.006,0.103-0.018,0.205-0.024,0.308c-0.068,1.269-0.104,2.547-0.104,3.834v0.324l3.256,39.182h-27.164v15.592h28.46
	l19.401,233.478c0.058,8.008,2.073,15.771,6.01,22.778C208.335,493.136,200.321,496.408,191.891,496.408z M256.141,496.408
	c-9.457,0-17.99-4.094-23.905-10.603l-1.868-2.491c-3.68-4.942-5.883-10.597-6.394-16.494c-0.006-0.075-0.011-0.15-0.017-0.225
	c-0.063-0.805-0.101-1.612-0.101-2.424v-0.324l-5.357-64.418h21.989v-15.592h-23.285L201.816,198.81h13.725v-15.592h-15.023
	l-0.632-7.598c0.015-2.724,0.235-5.4,0.626-8.02c0.048-0.313,0.095-0.627,0.148-0.939c0.061-0.37,0.134-0.736,0.203-1.103
	c3.028-15.884,12.884-30.008,27.185-38.292l1.718-0.997c7.878-4.202,16.863-6.591,26.396-6.591c9.627,0,18.697,2.432,26.631,6.712
	l1.515,0.877c14.441,8.366,24.326,22.682,27.241,38.756c0.031,0.172,0.065,0.342,0.095,0.515c0.07,0.409,0.131,0.818,0.192,1.229
	c0.082,0.56,0.159,1.123,0.223,1.688c0.022,0.186,0.049,0.37,0.069,0.556c0.089,0.852,0.159,1.711,0.21,2.574
	c0.006,0.107,0.012,0.215,0.018,0.322c0.048,0.899,0.079,1.805,0.083,2.714l-7.392,88.677h-24.021v15.592h22.722l-15.306,183.633
	l-0.039,0.648c0,0.531-0.015,1.058-0.041,1.583c-0.002,0.035-0.002,0.07-0.004,0.105c-0.027,0.512-0.067,1.021-0.116,1.527
	c-0.03,0.29-0.069,0.579-0.107,0.868c-0.063,0.501-0.138,0.999-0.226,1.493c-0.117,0.649-0.242,1.295-0.4,1.936
	c-0.006,0.027-0.012,0.054-0.019,0.08c-1.028,4.102-2.889,8.01-5.526,11.553l-1.391,1.867
	C274.65,492.048,265.894,496.408,256.141,496.408z M353.777,448.283h-17.658v15.592h16.373l-0.012,0.295
	c0,17.776-14.461,32.237-32.237,32.237c-8.399,0-16.259-3.248-22.231-9.054c2.83-5.086,4.75-10.742,5.562-16.746
	c0.014-0.101,0.027-0.203,0.041-0.304c0.104-0.807,0.187-1.618,0.251-2.437c0.013-0.178,0.032-0.354,0.044-0.533
	c0.061-0.936,0.104-1.876,0.11-2.826l20.756-249.069h19.66v-15.592h-18.36l1.939-23.267l0.029-0.648
	c0-21.378-9.394-40.593-24.259-53.765c5.324-1.643,10.876-2.492,16.459-2.492c30.916,0,56.087,25.065,56.255,55.943L353.777,448.283
	z"/>
<g>
	<path style="fill:#FFFFFF;" d="M256.079,487.98c-13.513,0-23.699-10.591-23.699-24.104h15.592c0,5.197,3.949,8.512,8.107,8.512
		V487.98z"/>
	<path style="fill:#FFFFFF;" d="M296.013,175.941h-15.592c0-13.513-10.828-24.236-24.341-24.236v-15.592
		C277.909,136.112,296.013,154.112,296.013,175.941z"/>
</g>
<g>
</g>
<g>
</g>
<g>
</g>
<g>
</g>
<g>
</g>
<g>
</g>
<g>
</g>
<g>
</g>
<g>
</g>
<g>
</g>
<g>
</g>
<g>
</g>
<g>
</g>
<g>
</g>
<g>
</g>
</svg>
