<?xml version="1.0" encoding="iso-8859-1"?>
<!-- Generator: Adobe Illustrator 19.0.0, SVG Export Plug-In . SVG Version: 6.00 Build 0)  -->
<svg version="1.1" id="Layer_1" xmlns="http://www.w3.org/2000/svg" xmlns:xlink="http://www.w3.org/1999/xlink" x="0px" y="0px"
	 viewBox="0 0 512 512" style="enable-background:new 0 0 512 512;" xml:space="preserve">
<path style="fill:#9E005D;" d="M32.37,434.686L32.37,434.686c0,26.466,21.455,47.921,47.921,47.921H431.71
	c26.466,0,47.921-21.455,47.921-47.921l0,0"/>
<path style="fill:#B1337D;" d="M431.71,435.048c0,26.122-21.455,48.065-47.921,48.065h47.921c26.466,0,47.921-21.943,47.921-48.065
	H431.71z"/>
<path style="fill:#770046;" d="M80.29,435.048c0,24.033,21.455,48.065,47.921,48.065H80.29c-26.466,0-47.921-24.033-47.921-48.065
	H80.29z"/>
<rect x="120.226" y="266.961" style="fill:#A67C52;" width="271.548" height="167.727"/>
<g>
	<rect x="152.168" y="266.961" style="fill:#C69C6D;" width="55.912" height="167.727"/>
	<rect x="224.057" y="266.961" style="fill:#C69C6D;" width="63.896" height="167.727"/>
	<rect x="303.919" y="266.961" style="fill:#C69C6D;" width="55.912" height="167.727"/>
</g>
<path style="fill:#FCBA59;" d="M256,67.294c0,8.822-7.151,15.973-15.973,15.973c-8.822,0-15.973-7.151-15.973-15.973
	s15.973-31.947,15.973-31.947S256,58.471,256,67.294z"/>
<g>
	<path style="fill:#ED1C24;" d="M120.224,306.897l18.382,6.127c3.644,1.214,7.558,1.365,11.283,0.434l21.345-5.336
		c3.215-0.804,6.58-0.804,9.795,0l22.152,5.538c3.215,0.804,6.58,0.804,9.795,0l22.152-5.538c3.215-0.804,6.58-0.804,9.795,0
		l22.152,5.538c3.215,0.804,6.58,0.804,9.795,0l22.152-5.538c3.215-0.804,6.58-0.804,9.795,0l22.152,5.538
		c3.215,0.804,6.58,0.804,9.795,0l21.345-5.336c3.726-0.931,7.64-0.782,11.283,0.434l18.382,6.127v23.961l-18.382-6.127
		c-3.644-1.214-7.558-1.365-11.283-0.434l-21.345,5.336c-3.215,0.804-6.58,0.804-9.795,0l-22.152-5.538
		c-3.215-0.804-6.58-0.804-9.795,0l-22.152,5.538c-3.215,0.804-6.58,0.804-9.795,0l-22.152-5.538c-3.215-0.804-6.58-0.804-9.795,0
		l-22.152,5.538c-3.215,0.804-6.58,0.804-9.795,0l-22.152-5.538c-3.215-0.804-6.58-0.804-9.795,0l-21.345,5.336
		c-3.726,0.931-7.64,0.782-11.283-0.434l-18.382-6.127"/>
	<path style="fill:#ED1C24;" d="M120.224,370.791l18.382,6.127c3.644,1.214,7.558,1.365,11.283,0.434l21.345-5.336
		c3.215-0.804,6.58-0.804,9.795,0l22.152,5.538c3.215,0.804,6.58,0.804,9.795,0l22.152-5.538c3.215-0.804,6.58-0.804,9.795,0
		l22.152,5.538c3.215,0.804,6.58,0.804,9.795,0l22.152-5.538c3.215-0.804,6.58-0.804,9.795,0l22.152,5.538
		c3.215,0.804,6.58,0.804,9.795,0l21.345-5.336c3.726-0.931,7.64-0.782,11.283,0.434l18.382,6.127v23.961l-18.382-6.127
		c-3.644-1.214-7.558-1.365-11.283-0.434l-21.345,5.336c-3.215,0.804-6.58,0.804-9.795,0l-22.152-5.538
		c-3.215-0.804-6.58-0.804-9.795,0l-22.152,5.538c-3.215,0.804-6.58,0.804-9.795,0l-22.152-5.538c-3.215-0.804-6.58-0.804-9.795,0
		l-22.152,5.538c-3.215,0.804-6.58,0.804-9.795,0l-22.152-5.538c-3.215-0.804-6.58-0.804-9.795,0l-21.345,5.336
		c-3.726,0.931-7.64,0.782-11.283-0.434l-18.382-6.127"/>
</g>
<polyline style="fill:#C7B299;" points="222.563,234.428 222.563,107.995 253.91,107.995 253.91,234.428 "/>
<rect x="222.26" y="131.187" style="fill:#FFFFFF;" width="31.947" height="23.961"/>
<circle style="fill:#C1272D;" cx="287.943" cy="211.059" r="23.961"/>
<g>
	<path style="fill:#FF1D25;" d="M287.947,187.095c-4.387,0-8.444,1.265-11.98,3.323c7.131,4.151,11.98,11.791,11.98,20.638
		c0,8.847-4.848,16.486-11.98,20.638c3.537,2.058,7.593,3.323,11.98,3.323c13.233,0,23.961-10.727,23.961-23.961
		S301.18,187.095,287.947,187.095z"/>
	<rect x="120.163" y="218.749" style="fill:#FF1D25;" width="15.673" height="15.673"/>
	<rect x="151.51" y="218.749" style="fill:#FF1D25;" width="16.718" height="15.673"/>
	<rect x="184.947" y="218.749" style="fill:#FF1D25;" width="14.629" height="15.673"/>
	<rect x="327.053" y="218.749" style="fill:#FF1D25;" width="16.718" height="15.673"/>
	<rect x="360.49" y="218.749" style="fill:#FF1D25;" width="15.673" height="15.673"/>
	<rect x="391.837" y="218.749" style="fill:#FF1D25;" width="15.673" height="15.673"/>
</g>
<path style="fill:#FF7BAC;" d="M431.543,435.048V250.99c0-8.822-6.985-16.562-15.807-16.562H112.238
	c-8.822,0-15.973,7.374-15.973,16.196s7.151,16.196,15.973,16.196h279.599v168.229H431.543"/>
<path style="fill:#B2446D;" d="M431.71,434.686h-15.973v-199.67h1.18c8.17,0,14.794,6.624,14.794,14.794V434.686z"/>
<path d="M512,426.689H0v15.673h25.073c3.753,27.123,27.076,48.081,55.217,48.081h351.42c28.139,0,51.463-20.958,55.217-48.081H512
	V426.689z M431.71,474.77H80.29c-19.477,0-35.746-13.966-39.338-32.408h430.097C467.456,460.804,451.187,474.77,431.71,474.77z"/>
<path d="M415.737,228.159H314.732c3.167-4.942,5.012-10.809,5.012-17.103c0-10.94-5.555-20.607-13.991-26.33l16.343-38.779
	c0.004-0.01,0.489-1.03,3.048-2.719c4.169-2.75,9.432-4.203,15.221-4.203h3.489v-15.673h-3.489c-8.865,0-17.112,2.349-23.851,6.792
	c-4.407,2.907-7.293,6.055-8.843,9.671l-16.686,39.594c-1.001-0.095-2.014-0.148-3.039-0.148c-10.538,0-19.889,5.157-25.678,13.074
	V99.636H247.64v-9.789c9.405-3.184,16.196-12.088,16.196-22.554c0-3.388-1.692-13.715-17.362-36.402l-6.448-9.335l-6.448,9.335
	c-15.671,22.687-17.363,33.015-17.363,36.402c0,10.301,6.577,19.092,15.752,22.404v9.939h-16.718v128.522H112.237
	c-13.129,0-23.81,10.547-23.81,23.51c0,12.82,10.448,23.27,23.378,23.5V418.33h15.673v-12.9l8.649,2.883
	c5.066,1.692,10.482,1.898,15.663,0.603l21.345-5.335c1.96-0.492,4.033-0.492,5.994,0l22.152,5.538c4.448,1.112,9.15,1.112,13.596,0
	l22.153-5.538c1.96-0.492,4.032-0.492,5.994,0l22.152,5.538c4.448,1.112,9.149,1.112,13.596,0l22.153-5.538
	c1.96-0.492,4.032-0.492,5.994,0l22.152,5.538c4.447,1.111,9.149,1.111,13.597,0l21.345-5.336c2.284-0.573,4.671-0.479,6.904,0.265
	l12.563,4.187v10.096h15.673V275.179h8.359v-15.673H112.238c-4.563,0-8.137-3.442-8.137-7.837c0-4.395,3.574-7.837,8.137-7.837
	h303.499c4.593,0,7.447,2.743,7.447,7.158v167.34h15.673V250.99C438.857,237.974,428.917,228.159,415.737,228.159z M127.478,341.536
	l8.651,2.884c5.067,1.688,10.482,1.895,15.662,0.601l21.345-5.335c1.96-0.492,4.033-0.492,5.994,0l22.152,5.538
	c4.448,1.112,9.15,1.112,13.596,0l22.153-5.538c1.96-0.492,4.032-0.492,5.994,0l22.152,5.538c4.448,1.112,9.149,1.112,13.596,0
	l22.153-5.538c1.96-0.492,4.032-0.492,5.994,0l22.152,5.538c4.448,1.112,9.149,1.112,13.596,0l21.346-5.335
	c2.285-0.57,4.672-0.48,6.904,0.264l12.562,4.186v23.412l-7.606-2.535c-5.067-1.689-10.483-1.895-15.662-0.602l-21.343,5.336
	c-1.961,0.49-4.034,0.49-5.995,0l-22.152-5.539c-4.448-1.113-9.15-1.113-13.597,0l-22.151,5.539c-1.961,0.49-4.034,0.49-5.995,0
	l-22.152-5.539c-4.447-1.113-9.149-1.113-13.597,0l-22.151,5.539c-1.961,0.49-4.035,0.49-5.995,0l-22.152-5.539
	c-4.448-1.112-9.149-1.112-13.597,0l-21.345,5.336c-2.283,0.572-4.669,0.48-6.904-0.265l-13.608-4.534V341.536z M383.478,327.817
	l-7.606-2.535c-5.067-1.688-10.481-1.894-15.662-0.601l-21.346,5.335c-1.96,0.492-4.032,0.492-5.994,0l-22.152-5.538
	c-4.448-1.112-9.149-1.112-13.596,0l-22.153,5.538c-1.96,0.492-4.032,0.492-5.994,0l-22.152-5.538
	c-4.448-1.112-9.149-1.112-13.596,0l-22.153,5.538c-1.96,0.492-4.032,0.492-5.994,0l-22.152-5.538
	c-4.447-1.112-9.149-1.112-13.597,0l-21.345,5.335c-2.284,0.571-4.671,0.481-6.904-0.264l-13.606-4.535v-7.439l8.651,2.884
	c5.067,1.689,10.482,1.894,15.662,0.601l21.345-5.335c1.96-0.492,4.033-0.492,5.994,0l22.152,5.538c4.448,1.112,9.15,1.112,13.596,0
	l22.153-5.538c1.96-0.492,4.032-0.492,5.994,0l22.152,5.538c4.448,1.112,9.149,1.112,13.596,0l22.153-5.538
	c1.96-0.492,4.032-0.492,5.994,0l22.152,5.538c4.447,1.112,9.149,1.112,13.597,0l21.344-5.336c2.283-0.572,4.672-0.479,6.906,0.265
	l12.561,4.187V327.817z M375.872,389.177c-5.067-1.69-10.483-1.895-15.662-0.602l-21.345,5.336c-1.96,0.492-4.032,0.492-5.994,0
	l-22.152-5.538c-4.448-1.112-9.149-1.112-13.596,0l-22.153,5.538c-1.96,0.492-4.032,0.492-5.994,0l-22.152-5.538
	c-4.448-1.112-9.149-1.112-13.596,0l-22.153,5.538c-1.96,0.492-4.032,0.492-5.994,0l-22.152-5.538
	c-4.447-1.112-9.149-1.112-13.597,0l-21.345,5.335c-2.284,0.572-4.67,0.481-6.904-0.265l-13.607-4.535v-7.44l8.651,2.884
	c5.067,1.689,10.483,1.895,15.662,0.602l21.345-5.336c1.959-0.492,4.032-0.492,5.994,0l22.154,5.539
	c4.446,1.111,9.147,1.111,13.595,0l22.153-5.539c1.96-0.492,4.032-0.492,5.992,0l22.155,5.539c4.447,1.111,9.147,1.111,13.594,0
	l22.153-5.539c1.96-0.491,4.032-0.492,5.992,0l22.155,5.539c4.447,1.111,9.147,1.111,13.594,0l21.345-5.336
	c2.284-0.57,4.671-0.478,6.904,0.265l12.562,4.186v7.44L375.872,389.177z M383.478,303.857l-7.606-2.535
	c-5.065-1.688-10.481-1.895-15.662-0.602l-21.345,5.336c-1.96,0.492-4.032,0.492-5.994,0l-22.152-5.538
	c-4.448-1.112-9.149-1.112-13.596,0l-22.153,5.538c-1.96,0.492-4.032,0.492-5.994,0l-22.152-5.538
	c-4.448-1.112-9.149-1.112-13.596,0l-22.153,5.538c-1.96,0.492-4.032,0.492-5.994,0l-22.152-5.538
	c-4.447-1.112-9.149-1.112-13.597,0l-21.345,5.335c-2.285,0.571-4.672,0.481-6.904-0.264l-13.607-4.535v-25.876h256V303.857z
	 M287.948,194.932c8.89,0,16.124,7.233,16.124,16.124s-7.233,16.124-16.124,16.124s-16.124-7.233-16.124-16.124
	S279.057,194.932,287.948,194.932z M231.889,67.3c0.052-2.464,3.446-9.564,8.138-17.442c4.69,7.877,8.083,14.977,8.137,17.44
	c-0.002,4.485-3.652,8.132-8.137,8.132C235.54,75.43,231.889,71.78,231.889,67.3z M230.922,115.31h15.673v8.359h-15.673V115.31z
	 M246.596,147.702h-15.673v-8.359h15.673V147.702z M230.922,163.375h15.673v64.784h-15.673V163.375z"/>
<g>
</g>
<g>
</g>
<g>
</g>
<g>
</g>
<g>
</g>
<g>
</g>
<g>
</g>
<g>
</g>
<g>
</g>
<g>
</g>
<g>
</g>
<g>
</g>
<g>
</g>
<g>
</g>
<g>
</g>
</svg>
