<?xml version="1.0" encoding="iso-8859-1"?>
<!-- Generator: Adobe Illustrator 19.0.0, SVG Export Plug-In . SVG Version: 6.00 Build 0)  -->
<svg version="1.1" id="Layer_1" xmlns="http://www.w3.org/2000/svg" xmlns:xlink="http://www.w3.org/1999/xlink" x="0px" y="0px"
	 viewBox="0 0 512 512" style="enable-background:new 0 0 512 512;" xml:space="preserve">
<polyline style="fill:#FF1D25;" points="22.941,393.786 22.941,489.721 489.059,489.721 489.059,393.786 "/>
<polyline style="fill:#BF161C;" points="22.941,393.786 22.941,489.721 328.101,489.721 407.849,393.685 "/>
<path style="fill:#957552;" d="M199.922,256.471c27.227-25.674,63.926-41.409,104.302-41.409c83.981,0,152.06,68.079,152.06,152.06
	v10.265v16.022H79.751v-16.022l0,0c0-8.849,7.173-16.022,16.022-16.022l0,0c10.259,0,20.098-4.075,27.352-11.33l36.738-36.738
	L199.922,256.471z"/>
<rect x="23.672" y="393.406" style="fill:#911D22;" width="41.951" height="96.133"/>
<path style="fill:#C69C6D;" d="M368.158,393.408v-72.101l0,0c-13.273,0-24.034,10.76-24.034,24.034v16.022h-32.045
	c-8.849,0-16.022,7.173-16.022,16.022v16.022h72.101V393.408z"/>
<path id="SVGCleanerId_0" style="fill:#957552;" d="M172.841,333.399c10.817,18.928,33.134,29.424,54.038,23.236
	c7.432-2.2,14.437-6.233,20.304-12.099c5.867-5.867,9.899-12.871,12.099-20.304c6.188-20.904-4.308-43.223-23.236-54.038
	l-68.171-38.955l-33.989,33.989L172.841,333.399z"/>
<g>
	<path id="SVGCleanerId_0_1_" style="fill:#957552;" d="M172.841,333.399c10.817,18.928,33.134,29.424,54.038,23.236
		c7.432-2.2,14.437-6.233,20.304-12.099c5.867-5.867,9.899-12.871,12.099-20.304c6.188-20.904-4.308-43.223-23.236-54.038
		l-68.171-38.955l-33.989,33.989L172.841,333.399z"/>
</g>
<g>
	<path style="fill:#C69C6D;" d="M236.047,270.193l-68.171-38.955l-13.492,13.493l44.558,25.461
		c18.928,10.817,29.424,33.134,23.236,54.038c-2.2,7.433-6.233,14.437-12.098,20.304c-4.227,4.227-9.06,7.467-14.203,9.791
		c9.596,4.294,20.475,5.426,31.005,2.309c7.433-2.2,14.437-6.233,20.304-12.099c5.867-5.867,9.899-12.871,12.099-20.304
		C265.469,303.327,254.975,281.01,236.047,270.193z"/>
	<path style="fill:#C69C6D;" d="M303.927,215.062c-1.828,0-3.703,0.199-5.515,0.263c63.198,18.45,109.311,76.724,109.311,145.882
		v10.265v13.971H80.293v8.342H455.69v-16.4v-10.265C455.69,283.141,387.907,215.062,303.927,215.062z"/>
</g>
<rect y="385.439" width="512" height="15.642"/>
<polygon points="496.358,497.021 15.642,497.021 15.642,409.428 31.283,409.428 31.283,481.379 480.717,481.379 480.717,409.428 
	496.358,409.428 "/>
<g>
	<rect x="151.202" y="416.722" style="fill:#FBB03B;" width="40.668" height="15.642"/>
	<rect x="320.13" y="416.722" style="fill:#FBB03B;" width="40.668" height="15.642"/>
</g>
<polygon style="fill:#FFFFFF;" points="304.489,465.738 207.511,465.738 207.511,432.369 200.212,432.369 200.212,416.727 
	223.153,416.727 223.153,450.096 288.847,450.096 288.847,416.727 311.788,416.727 311.788,432.369 304.489,432.369 "/>
<rect x="344.114" y="273.863" width="40.668" height="15.642"/>
<rect x="320.13" y="289.504" width="23.984" height="15.642"/>
<rect x="200.212" y="296.804" style="fill:#FFFFFF;" width="15.642" height="15.642"/>
<path d="M304.17,207.169c-36.913,0-72.166,12.53-100.526,35.501l-37.075-21.186l-15.688,15.688l-23.663-23.664V169.59h-15.642
	v28.278l-17.479-17.479l-11.061,11.06l17.766,17.766H71.951v15.642h44.493l23.376,23.376l-15.687,15.687l26.925,47.12
	l-33.461,33.462c-5.83,5.829-13.579,9.039-21.823,9.039c-13.147,0-23.843,10.696-23.843,23.843h15.642
	c0-4.523,3.679-8.201,8.201-8.201c9.275,0,18.135-2.7,25.687-7.724h29.742v-15.642h-12.8l20.701-20.7l6.949,12.16l0,0
	c10.328,18.072,29.398,28.915,48.732,28.915c4.799,0,9.615-0.668,14.316-2.059c8.872-2.626,17.038-7.49,23.615-14.068
	c6.579-6.577,11.443-14.743,14.068-23.615c6.998-23.643-4.296-50.158-26.855-63.049l-21.594-12.339
	c24.697-18.319,54.608-28.253,85.838-28.253c60.592,0,112.571,37.588,133.887,90.681h-37.635v15.642h42.887
	c3.306,12.109,5.08,24.843,5.08,37.987v9.98h15.642v-9.98C464.033,278.923,392.319,207.169,304.17,207.169z M232.166,276.984
	c2.16,1.235,4.173,2.64,6.039,4.184h-22.352v15.642h34.144c3.448,7.971,4.256,16.857,1.785,25.204
	c-0.842,2.843-2.021,5.577-3.47,8.165h-24.117v15.642h8.353c-2.506,1.379-5.146,2.505-7.888,3.316
	c-16.761,4.961-35.699-3.29-45.029-19.618l0,0l-22.863-40.009h19.459v-15.642h-28.397l-4.191-7.334l25.542-25.542l35.22,20.125
	l0.85,0.901c0.092-0.087,0.187-0.17,0.278-0.257L232.166,276.984z"/>
<rect x="151.202" y="361.455" style="fill:#FFFFFF;" width="25.026" height="15.642"/>
<path d="M200.344,179l-4.797-19.188c-2.526-10.101-1.351-20.793,3.306-30.106l2.082-4.168c3.923-7.844,3.923-17.208,0.001-25.05
	c-6.111-12.223-6.111-26.818,0-39.04l2.084-4.169c2.988-5.975,3.741-12.835,2.12-19.317l-4.798-19.188l15.175-3.794l4.798,19.188
	c2.526,10.101,1.351,20.793-3.306,30.107l-2.084,4.169c-3.921,7.843-3.921,17.207,0,25.049c6.112,12.222,6.112,26.818,0,39.04
	l-2.082,4.167c-2.989,5.977-3.743,12.838-2.121,19.318l4.797,19.188L200.344,179z"/>
<path d="M254.39,203.034l-4.005-16.022c-2.931-11.723-2.931-24.116,0-35.839c2.311-9.241,2.311-19.01,0-28.251
	c-2.931-11.723-2.931-24.116,0-35.84l4.005-16.022l15.175,3.794l-4.005,16.022c-2.311,9.241-2.311,19.011,0,28.252
	c2.931,11.723,2.931,24.116,0,35.839c-2.311,9.241-2.311,19.01,0,28.251l4.005,16.023L254.39,203.034z"/>
<path d="M293.994,130.569l-4.63-23.152c-2.519-12.598-0.743-25.865,5.003-37.356c4.526-9.052,5.666-19.445,3.212-29.263
	l-3.503-14.013l15.175-3.794l3.503,14.013c3.359,13.438,1.798,27.663-4.397,40.052c-4.197,8.396-5.496,18.09-3.655,27.294
	l4.63,23.152L293.994,130.569z"/>
<path d="M336.455,194.66l-1.534-7.666c-4.463-22.319-3.904-45.787,1.615-67.867l15.175,3.794
	c-4.963,19.847-5.464,40.942-1.453,61.004l1.534,7.666L336.455,194.66z"/>
<rect x="328.473" y="72.618" width="15.642" height="16.684"/>
<path d="M375.979,377.386h-15.642v-46.245c-4.999,2.764-8.392,8.093-8.392,14.199v23.843H312.08c-4.524,0-8.202,3.679-8.202,8.201
	h-15.642c0-13.147,10.697-23.843,23.844-23.843h24.224v-8.201c0-17.564,14.29-31.855,31.855-31.855h7.821V377.386z"/>
<g>
	<rect x="296.147" y="241.537" style="fill:#FFFFFF;" width="15.642" height="15.642"/>
	<rect x="424.407" y="361.455" style="fill:#FFFFFF;" width="15.642" height="15.642"/>
	<rect x="280.505" y="257.178" style="fill:#FFFFFF;" width="15.642" height="15.642"/>
</g>
<g>
</g>
<g>
</g>
<g>
</g>
<g>
</g>
<g>
</g>
<g>
</g>
<g>
</g>
<g>
</g>
<g>
</g>
<g>
</g>
<g>
</g>
<g>
</g>
<g>
</g>
<g>
</g>
<g>
</g>
</svg>
